<svg width="256" height="256" viewBox="0 0 256 256" fill="none" xmlns="http://www.w3.org/2000/svg">
<g clip-path="url(#clip0_464_22859)">
<path d="M62.5938 166.217C51.3441 155.826 42.7633 142.877 37.5775 128.467C32.3917 114.057 30.7536 98.6103 32.8018 83.4333C34.8271 68.0441 40.5537 53.3754 49.4908 40.6846C58.4279 27.9938 70.309 17.6592 84.1157 10.5668C97.9225 3.47437 113.243 -0.16447 128.764 -0.0378193C144.286 0.0888316 159.545 3.97719 173.234 11.294C186.923 18.6108 198.634 29.1378 207.363 41.9728C216.092 54.8078 221.578 69.5679 223.352 84.9881C225.126 100.408 223.134 116.029 217.548 130.51C211.961 144.992 202.947 157.903 191.277 168.137C181.226 177.207 174.46 189.347 172.034 202.665H138.669V115.369C144.886 113.171 150.273 109.105 154.092 103.729C157.91 98.352 159.975 91.9267 160.002 85.3319H138.669C138.669 88.1609 137.545 90.874 135.544 92.8744C133.544 94.8748 130.831 95.9986 128.002 95.9986C125.173 95.9986 122.46 94.8748 120.459 92.8744C118.459 90.874 117.335 88.1609 117.335 85.3319H96.0018C96.0292 91.9267 98.0934 98.352 101.912 103.729C105.731 109.105 111.117 113.171 117.335 115.369V202.665H84.0018C80.8083 188.594 73.3287 175.859 62.5938 166.217V166.217ZM85.3352 223.999V255.999H170.669V223.999H85.3352Z" fill="#FEBE14"/>
</g>
<defs>
<clipPath id="clip0_464_22859">
<rect width="256" height="256" fill="white"/>
</clipPath>
</defs>
</svg>
