<svg width="256" height="256" viewBox="0 0 256 256" fill="none" xmlns="http://www.w3.org/2000/svg">
<g clip-path="url(#clip0_464_22891)">
<path d="M127.762 103.804C149.205 87.6085 176.938 82.2515 202.87 89.296C203.051 87.1735 203.252 85.157 203.252 83.045C203.257 41.236 169.368 7.33898 127.559 7.33398C85.7502 7.32898 51.8532 41.218 51.8477 83.027V83.045C51.8477 85.1675 52.0492 87.29 52.2402 89.413C78.2842 82.249 106.178 87.5645 127.762 103.804Z" fill="#E98142"/>
<path d="M119.777 147.571C125.066 148.205 130.413 148.184 135.697 147.508C133.619 142.551 130.943 137.868 127.726 133.562C124.516 137.891 121.846 142.595 119.777 147.571Z" fill="#E98142"/>
<path d="M224.545 111.711C220.388 108.716 215.938 106.151 211.262 104.057C204.609 130.141 186.218 151.657 161.488 162.29C161.935 165.736 162.169 169.206 162.188 172.68C162.235 195.917 152.848 218.177 136.176 234.363C170.045 258.765 217.284 251.091 241.686 217.222C266.089 183.352 258.415 136.113 224.545 111.711Z" fill="#E98142"/>
<path d="M93.3521 172.683C93.3656 169.276 93.5891 165.874 94.0206 162.494C69.1656 152.026 50.6121 130.569 43.8426 104.463C5.96662 122.041 -10.4874 166.996 7.09112 204.872C24.6696 242.748 69.6246 259.202 107.501 241.624C111.739 239.657 115.785 237.302 119.588 234.588C102.778 218.386 93.3036 196.029 93.3521 172.683Z" fill="#E98142"/>
<path d="M140.803 168.328C132.168 169.669 123.38 169.694 114.737 168.403C114.631 169.835 114.578 171.268 114.578 172.648C114.544 186.831 119.179 200.63 127.77 211.916C136.362 200.631 140.998 186.831 140.962 172.648C140.962 171.247 140.909 169.782 140.803 168.328Z" fill="#E98142"/>
<path d="M99.1606 141.649C102.344 133.362 106.786 125.615 112.331 118.683C99.1181 109.661 83.0511 105.809 67.1836 107.858C73.3471 122.656 84.7246 134.679 99.1606 141.649Z" fill="#E98142"/>
<path d="M143.203 118.68C148.712 125.559 153.129 133.244 156.3 141.466C170.531 134.441 181.733 122.496 187.831 107.844C172.132 105.9 156.263 109.753 143.203 118.68Z" fill="#E98142"/>
</g>
<defs>
<clipPath id="clip0_464_22891">
<rect width="256" height="256" fill="white"/>
</clipPath>
</defs>
</svg>
