<svg width="256" height="256" viewBox="0 0 256 256" fill="none" xmlns="http://www.w3.org/2000/svg">
<g clip-path="url(#clip0_464_22867)">
<path d="M249.088 6.9213C245.938 3.74222 241.941 1.53529 237.573 0.563274C233.204 -0.408743 228.649 -0.104897 224.448 1.43864L222.144 2.25997C170.684 18.9029 123.832 47.3555 85.3333 85.3426C66.0042 107.004 49.1863 130.782 35.2 156.223L59.584 181.343L32 208.927L47.0827 224.009L74.6667 196.425L99.4133 221.172C124.848 207.182 148.622 190.364 170.283 171.039C208.397 132.405 236.982 85.4199 253.771 33.812L254.571 31.5613C256.114 27.3607 256.418 22.805 255.446 18.4365C254.474 14.0681 252.267 10.0711 249.088 6.9213V6.9213ZM117.333 149.343C115.224 149.343 113.161 148.717 111.407 147.545C109.653 146.373 108.286 144.707 107.479 142.758C106.671 140.809 106.46 138.664 106.872 136.595C107.283 134.526 108.299 132.625 109.791 131.134C111.283 129.642 113.183 128.626 115.252 128.214C117.322 127.803 119.466 128.014 121.415 128.821C123.364 129.629 125.03 130.996 126.202 132.75C127.374 134.504 128 136.566 128 138.676C128 141.505 126.876 144.218 124.876 146.218C122.875 148.219 120.162 149.343 117.333 149.343ZM149.333 117.343C147.224 117.343 145.161 116.717 143.407 115.545C141.653 114.373 140.286 112.707 139.479 110.758C138.671 108.809 138.46 106.664 138.872 104.595C139.283 102.526 140.299 100.625 141.791 99.1335C143.283 97.6417 145.183 96.6258 147.252 96.2143C149.322 95.8027 151.466 96.0139 153.415 96.8213C155.364 97.6286 157.03 98.9958 158.202 100.75C159.374 102.504 160 104.566 160 106.676C160 109.505 158.876 112.218 156.876 114.218C154.875 116.219 152.162 117.343 149.333 117.343ZM181.333 85.3426C179.224 85.3426 177.161 84.717 175.407 83.545C173.653 82.3729 172.286 80.707 171.479 78.7579C170.671 76.8088 170.46 74.6641 170.872 72.595C171.283 70.5259 172.299 68.6253 173.791 67.1335C175.283 65.6417 177.183 64.6258 179.252 64.2143C181.321 63.8027 183.466 64.0139 185.415 64.8213C187.364 65.6286 189.03 66.9958 190.202 68.7499C191.374 70.504 192 72.5663 192 74.676C192 77.5049 190.876 80.2181 188.876 82.2184C186.875 84.2188 184.162 85.3426 181.333 85.3426ZM202.101 168.137C200.763 185.365 195.773 202.11 187.464 217.261C179.155 232.412 167.717 245.62 153.909 256.009H117.333V235.508C141.805 221.669 164.631 205.105 185.376 186.132C191.253 180.276 196.768 174.239 202.101 168.137ZM69.8773 70.068C50.904 90.8131 34.3399 113.639 20.5013 138.111H0V101.535C10.3891 87.7271 23.5978 76.2887 38.7483 67.9796C53.8989 59.6705 70.6444 54.681 87.872 53.3426C81.7707 58.676 75.7333 64.1906 69.8773 70.068Z" fill="#E98142"/>
</g>
<defs>
<clipPath id="clip0_464_22867">
<rect width="256" height="256" fill="white"/>
</clipPath>
</defs>
</svg>
