<svg width="164" height="164" viewBox="0 0 164 164" fill="none" xmlns="http://www.w3.org/2000/svg">
<rect width="164" height="164" rx="82" fill="#FF13F0" fill-opacity="0.15"/>
<g clip-path="url(#clip0_460_252807)">
<path d="M74.8418 72.8207L91.9387 55.7278L108.272 72.0612L91.1792 89.1581L74.8418 72.8207ZM69.068 78.5945L36.4013 111.261C34.7864 112.877 33.6868 114.935 33.2413 117.175C32.7959 119.415 33.0246 121.738 33.8987 123.848C34.7727 125.958 36.2528 127.762 38.1519 129.032C40.051 130.301 42.2837 130.979 44.568 130.98C46.0856 130.984 47.589 130.687 48.9909 130.106C50.3929 129.525 51.6654 128.671 52.7346 127.595L85.4013 94.9278L69.068 78.5945ZM109.223 103.642L114.667 114.512L120.11 103.642L131 98.1782L120.11 92.731L114.667 81.8448L109.223 92.731L98.3332 98.1782L109.223 103.642ZM60.2235 54.7968L65.6666 65.6667L71.1096 54.7764L81.9999 49.3333L71.1096 43.8903L65.6666 33L60.2235 43.8903L49.3332 49.3333L60.2235 54.7968ZM111.943 52.0773L116.708 61.5833L121.473 52.0569L131 47.2917L121.473 42.5264L116.708 33L111.943 42.5264L102.417 47.2917L111.943 52.0773Z" fill="#FF13F0"/>
</g>
<defs>
<clipPath id="clip0_460_252807">
<rect width="98" height="98" fill="white" transform="translate(33 33)"/>
</clipPath>
</defs>
</svg>
