<svg width="164" height="164" viewBox="0 0 164 164" fill="none" xmlns="http://www.w3.org/2000/svg">
<rect width="164" height="164" rx="82" fill="#FF13F0" fill-opacity="0.15"/>
<g clip-path="url(#clip0_460_252801)">
<path d="M86.1649 77.8342C86.1649 79.4824 85.6762 81.0935 84.7605 82.4639C83.8448 83.8343 82.5433 84.9024 81.0206 85.5332C79.4979 86.1639 77.8223 86.3289 76.2058 86.0074C74.5893 85.6858 73.1045 84.8922 71.939 83.7267C70.7736 82.5613 69.9799 81.0764 69.6584 79.4599C69.3368 77.8434 69.5019 76.1679 70.1326 74.6451C70.7633 73.1224 71.8314 71.8209 73.2018 70.9053C74.5722 69.9896 76.1834 69.5008 77.8316 69.5008C80.0417 69.5008 82.1613 70.3788 83.7241 71.9416C85.2869 73.5044 86.1649 75.624 86.1649 77.8342ZM131.998 85.2842V94.5008H122.29L120.419 108.643C120.014 111.644 118.536 114.398 116.258 116.394C113.98 118.39 111.056 119.494 108.027 119.501H98.6649V132.001H44.4983V112.38C44.4972 110.459 43.8235 108.598 42.5941 107.122C37.379 100.849 33.9324 93.2985 32.6101 85.2491C31.2878 77.1997 32.1377 68.9432 35.0721 61.3319C38.0066 53.7207 42.9191 47.0305 49.3027 41.952C55.6863 36.8735 63.3097 33.5907 71.3857 32.4425C79.5257 31.2526 87.836 32.2958 95.4292 35.461C103.022 38.6261 109.613 43.7942 114.498 50.4133C120.379 59.1503 125.233 68.5358 128.965 78.3842C129.857 80.4258 131.998 85.2842 131.998 85.2842ZM93.8274 73.4133L101.582 68.9425L97.4149 61.7258L89.7066 66.1675C87.5831 64.028 84.9191 62.5045 81.9982 61.7592V52.8342H73.6649V61.7592C70.7441 62.5045 68.0801 64.028 65.9566 66.1675L58.2483 61.7258L54.0816 68.9425L61.8358 73.4133C61.4125 74.8497 61.1868 76.3369 61.1649 77.8342C61.1868 79.3314 61.4125 80.8187 61.8358 82.255L54.0816 86.7258L58.2483 93.9425L65.9566 89.5008C68.0801 91.6403 70.7441 93.1639 73.6649 93.9092V102.834H81.9982V93.9092C84.9191 93.1639 87.5831 91.6403 89.7066 89.5008L97.4149 93.9425L101.582 86.7258L93.8441 82.255C94.2617 80.8179 94.4818 79.3306 94.4982 77.8342C94.4763 76.3369 94.2507 74.8497 93.8274 73.4133V73.4133Z" fill="#FF13F0"/>
</g>
<defs>
<clipPath id="clip0_460_252801">
<rect width="100" height="100" fill="white" transform="translate(32 32)"/>
</clipPath>
</defs>
</svg>
