<svg width="164" height="164" viewBox="0 0 164 164" fill="none" xmlns="http://www.w3.org/2000/svg">
<rect width="164" height="164" rx="82" fill="#FF13F0" fill-opacity="0.15"/>
<path d="M33 69.7507V126.917H131V69.7507H33ZM94.25 110.584H53.4167V102.417H94.25V110.584ZM110.583 94.2507H53.4167V86.084H110.583V94.2507ZM118.75 37.084H45.25C42.0011 37.084 38.8853 38.3746 36.5879 40.6719C34.2906 42.9692 33 46.0851 33 49.334V61.584H131V49.334C131 46.0851 129.709 42.9692 127.412 40.6719C125.115 38.3746 121.999 37.084 118.75 37.084V37.084ZM49.3333 53.4173C48.5257 53.4173 47.7363 53.1778 47.0648 52.7292C46.3933 52.2805 45.8699 51.6427 45.5608 50.8966C45.2518 50.1505 45.1709 49.3295 45.3285 48.5374C45.486 47.7453 45.8749 47.0177 46.446 46.4466C47.017 45.8756 47.7446 45.4867 48.5367 45.3291C49.3288 45.1716 50.1498 45.2524 50.896 45.5615C51.6421 45.8705 52.2798 46.3939 52.7285 47.0654C53.1772 47.7369 53.4167 48.5264 53.4167 49.334C53.4167 50.417 52.9865 51.4556 52.2207 52.2213C51.4549 52.9871 50.4163 53.4173 49.3333 53.4173ZM61.5833 53.4173C60.7757 53.4173 59.9863 53.1778 59.3148 52.7292C58.6433 52.2805 58.1199 51.6427 57.8108 50.8966C57.5018 50.1505 57.4209 49.3295 57.5785 48.5374C57.736 47.7453 58.1249 47.0177 58.696 46.4466C59.267 45.8756 59.9946 45.4867 60.7867 45.3291C61.5788 45.1716 62.3998 45.2524 63.146 45.5615C63.8921 45.8705 64.5298 46.3939 64.9785 47.0654C65.4272 47.7369 65.6667 48.5264 65.6667 49.334C65.6667 50.417 65.2365 51.4556 64.4707 52.2213C63.7049 52.9871 62.6663 53.4173 61.5833 53.4173ZM73.8333 53.4173C73.0257 53.4173 72.2363 53.1778 71.5648 52.7292C70.8933 52.2805 70.3699 51.6427 70.0608 50.8966C69.7518 50.1505 69.6709 49.3295 69.8285 48.5374C69.986 47.7453 70.3749 47.0177 70.946 46.4466C71.517 45.8756 72.2446 45.4867 73.0367 45.3291C73.8288 45.1716 74.6498 45.2524 75.396 45.5615C76.1421 45.8705 76.7798 46.3939 77.2285 47.0654C77.6772 47.7369 77.9167 48.5264 77.9167 49.334C77.9167 50.417 77.4865 51.4556 76.7207 52.2213C75.9549 52.9871 74.9163 53.4173 73.8333 53.4173Z" fill="#FF13F0"/>
</svg>
