<svg width="164" height="164" viewBox="0 0 164 164" fill="none" xmlns="http://www.w3.org/2000/svg">
<rect width="164" height="164" rx="82" fill="#FF13F0" fill-opacity="0.15"/>
<g clip-path="url(#clip0_460_252573)">
<path d="M131 125.227L105.451 99.673C112.08 91.5617 115.338 81.2129 114.551 70.7669C113.765 60.3209 108.993 50.5768 101.224 43.5498C93.4552 36.5228 83.2826 32.7504 72.8103 33.0128C62.3381 33.2753 52.3672 37.5525 44.9598 44.9598C37.5525 52.3672 33.2753 62.3381 33.0128 72.8103C32.7504 83.2826 36.5228 93.4552 43.5498 101.224C50.5768 108.993 60.3209 113.765 70.7669 114.551C81.2129 115.338 91.5617 112.08 99.673 105.451L125.227 131L131 125.227Z" fill="#FF13F0"/>
</g>
<defs>
<clipPath id="clip0_460_252573">
<rect width="98" height="98" fill="white" transform="translate(33 33)"/>
</clipPath>
</defs>
</svg>
