<svg width="164" height="164" viewBox="0 0 164 164" fill="none" xmlns="http://www.w3.org/2000/svg">
<rect width="164" height="164" rx="82" fill="#FF13F0" fill-opacity="0.15"/>
<g clip-path="url(#clip0_460_252620)">
<path d="M129.904 123.801L106.306 131.151L103.881 123.352L111.762 120.902L108.495 110.465C103.715 110.956 98.915 109.738 94.9473 107.027C90.9796 104.316 88.1005 100.287 86.8208 95.6547L86.2695 94.0213L90.1895 82H125.282L126.098 84.4786C127.403 88.9309 127.142 93.696 125.359 97.9791C123.575 102.262 120.377 105.804 116.298 108.015L119.565 118.46L127.483 116.01L129.904 123.801ZM76.1673 58.2513L60.4343 53.8658C57.372 53.0211 54.1017 53.3957 51.3097 54.9108C48.5177 56.426 46.4214 58.9638 45.4607 61.9917L41.4835 73.8333H84.5259L84.6076 73.5924C85.0789 72.0311 85.2338 70.3914 85.063 68.7695C84.8922 67.1476 84.3993 65.5761 83.6132 64.1472C82.827 62.7183 81.7635 61.4607 80.4849 60.4483C79.2063 59.4359 77.7384 58.6889 76.1673 58.2513V58.2513ZM37.8371 84.6828C36.5888 89.1028 36.8786 93.8157 38.659 98.0495C40.4395 102.283 43.605 105.787 47.6371 107.986L44.301 118.472L36.3508 116.022L33.9375 123.801L57.5433 131.151L59.9647 123.352L52.1124 120.902L55.4567 110.445C56.148 110.527 56.8431 110.573 57.5392 110.583C61.9539 110.572 66.2462 109.131 69.7726 106.475C73.2989 103.819 75.8693 100.091 77.0983 95.8507L81.7738 82H38.7395L37.8371 84.6828ZM105.302 39.9703L99.5281 34.1964L90.1854 43.5432L95.9593 49.3333L105.302 39.9703ZM73.6561 43.3839L64.4686 34.1964L58.6948 39.9703L67.8823 49.1578L73.6561 43.3839ZM77.915 45.25H86.0817V33H77.915V45.25ZM92.8437 73.8333H122.53L118.585 62.1223C117.638 59.0703 115.544 56.5045 112.744 54.9646C109.944 53.4248 106.655 53.0309 103.571 53.8658L89.1687 57.8798C89.7549 58.6171 90.2884 59.3949 90.7653 60.2073C93.0379 64.3639 93.7737 69.1882 92.8437 73.8333V73.8333Z" fill="#FF13F0"/>
</g>
<defs>
<clipPath id="clip0_460_252620">
<rect width="98" height="98" fill="white" transform="translate(33 33)"/>
</clipPath>
</defs>
</svg>
