<svg width="164" height="164" viewBox="0 0 164 164" fill="none" xmlns="http://www.w3.org/2000/svg">
<rect width="164" height="164" rx="82" fill="#FF13F0" fill-opacity="0.15"/>
<g clip-path="url(#clip0_460_252951)">
<path d="M118.751 82C118.75 79.7471 118.545 77.4989 118.138 75.2829L130.564 68.1167L118.314 46.8833L105.884 54.0659C102.452 51.1297 98.5085 48.8512 94.2506 47.3448V33H69.7506V47.3448C65.4927 48.8512 61.549 51.1297 58.1172 54.0659L45.6875 46.8833L33.4375 68.1167L45.8631 75.2829C45.0469 79.7238 45.0469 84.2762 45.8631 88.7171L33.4375 95.8833L45.6875 117.117L58.1172 109.938C61.5493 112.873 65.493 115.15 69.7506 116.655V131H94.2506V116.655C98.5085 115.149 102.452 112.87 105.884 109.934L118.314 117.117L130.564 95.8833L118.138 88.7171C118.545 86.5011 118.75 84.2529 118.751 82V82ZM94.2506 82C94.2506 84.4228 93.5321 86.7912 92.1861 88.8057C90.84 90.8202 88.9269 92.3904 86.6885 93.3175C84.4501 94.2447 81.987 94.4873 79.6107 94.0146C77.2345 93.542 75.0517 92.3753 73.3385 90.6621C71.6253 88.9489 70.4586 86.7661 69.986 84.3899C69.5133 82.0136 69.7559 79.5505 70.6831 77.3121C71.6102 75.0737 73.1803 73.1605 75.1948 71.8145C77.2093 70.4685 79.5778 69.75 82.0006 69.75C85.2495 69.75 88.3653 71.0406 90.6626 73.3379C92.96 75.6353 94.2506 78.7511 94.2506 82Z" fill="#FF13F0"/>
</g>
<defs>
<clipPath id="clip0_460_252951">
<rect width="98" height="98" fill="white" transform="translate(33 33)"/>
</clipPath>
</defs>
</svg>
