<svg width="164" height="164" viewBox="0 0 164 164" fill="none" xmlns="http://www.w3.org/2000/svg">
<rect width="164" height="164" rx="82" fill="#FF13F0" fill-opacity="0.15"/>
<g clip-path="url(#clip0_460_252957)">
<path d="M69.75 106.5H33V69.75C33 62.4816 35.1553 55.3763 39.1935 49.3328C43.2316 43.2893 48.9712 38.579 55.6864 35.7974C62.4016 33.0159 69.7908 32.2882 76.9196 33.7062C84.0484 35.1242 90.5966 38.6243 95.7362 43.7638C100.876 48.9034 104.376 55.4516 105.794 62.5804C107.212 69.7092 106.484 77.0984 103.703 83.8136C100.921 90.5288 96.2107 96.2684 90.1672 100.307C84.1237 104.345 77.0185 106.5 69.75 106.5V106.5ZM114.667 70.0767C114.573 81.8736 109.845 93.1608 101.503 101.503C93.1608 109.845 81.8736 114.573 70.0767 114.667V114.667C72.9409 119.628 77.0594 123.748 82.019 126.615C86.9786 129.482 92.6048 130.994 98.3333 131H131V98.3334C130.994 92.6048 129.482 86.9786 126.615 82.019C123.748 77.0594 119.628 72.9409 114.667 70.0767Z" fill="#FF13F0"/>
</g>
<defs>
<clipPath id="clip0_460_252957">
<rect width="98" height="98" fill="white" transform="translate(33 33)"/>
</clipPath>
</defs>
</svg>
