<svg width="164" height="164" viewBox="0 0 164 164" fill="none" xmlns="http://www.w3.org/2000/svg">
<rect width="164" height="164" rx="82" fill="#FF13F0" fill-opacity="0.15"/>
<path d="M59.4832 123.417L55.2814 116.415C69.7487 107.725 69.7487 89.0644 69.7487 77.9169C69.7487 74.668 71.0393 71.5521 73.3366 69.2548C75.634 66.9575 78.7498 65.6669 81.9987 65.6669C85.2476 65.6669 88.3634 66.9575 90.6608 69.2548C92.9581 71.5521 94.2487 74.668 94.2487 77.9169H86.082C86.082 76.8339 85.6518 75.7953 84.8861 75.0295C84.1203 74.2637 83.0817 73.8335 81.9987 73.8335C80.9157 73.8335 79.8771 74.2637 79.1113 75.0295C78.3456 75.7953 77.9154 76.8339 77.9154 77.9169C77.9154 89.9505 77.9154 112.356 59.4832 123.417ZM93.824 90.5099L85.6737 89.8239C84.3834 105.051 79.4466 116.835 71.0064 124.859L76.6291 130.776C86.5843 121.339 92.3622 107.786 93.8404 90.5099H93.824ZM105.037 116.051L97.3561 113.283C95.6977 117.924 93.5052 122.357 90.8228 126.492L97.6583 130.959C100.689 126.293 103.165 121.29 105.037 116.051V116.051ZM110.582 77.9169C110.578 72.132 108.819 66.4845 105.537 61.7206C102.256 56.9567 97.6055 53.3007 92.2018 51.2357C86.798 49.1708 80.8949 48.794 75.2725 50.1553C69.65 51.5166 64.573 54.5519 60.7123 58.86L66.7924 64.3071C69.5498 61.2294 73.1761 59.0609 77.1922 58.0881C81.2083 57.1153 85.4251 57.384 89.2852 58.8588C93.1453 60.3335 96.4671 62.9449 98.8115 66.3477C101.156 69.7505 102.413 73.7846 102.415 77.9169C102.566 85.8663 101.934 93.8113 100.529 101.637L108.544 103.197C110.056 94.858 110.738 86.3901 110.582 77.9169V77.9169ZM61.582 77.9169C61.5808 76.7772 61.6751 75.6394 61.8638 74.5155L53.8237 73.1516C53.5541 74.7258 53.4176 76.3198 53.4154 77.9169C53.4154 96.884 47.9192 106.5 37.082 106.5V114.667C52.8804 114.667 61.582 101.6 61.582 77.9169ZM126.915 77.9169C126.934 71.1341 125.398 64.4374 122.424 58.3414L115.074 61.9143C117.503 66.8983 118.761 72.3722 118.749 77.9169C119.308 94.631 116.136 111.26 109.463 126.594L116.813 130.11C124.037 113.685 127.489 95.8508 126.915 77.9169V77.9169ZM45.2487 77.9169C45.2595 68.1735 49.1348 58.8323 56.0245 51.9426C62.9141 45.053 72.2553 41.1777 81.9987 41.1669C89.9546 41.1404 97.6999 43.7221 104.049 48.5169L108.949 41.9835C101.188 36.1257 91.7221 32.9705 81.9987 33.0002C70.0904 33.0143 58.6738 37.751 50.2533 46.1715C41.8329 54.592 37.0961 66.0085 37.082 77.9169V90.1669H45.2487V77.9169Z" fill="#FF13F0"/>
</svg>
